#N canvas 672 136 450 300 10;
#N canvas 482 136 494 344 META 0;
#X text 12 5 KEYWORDS control;
#X text 12 45 DESCRIPTION example libdir object class;
#X text 12 65 INLET_0 float rats;
#X text 12 25 LICENSE GPL v3;
#X text 12 85 AUTHOR Rafael Vega \, Daniel Gómez;
#X restore 370 250 pd META;
#X obj 170 133 edit_distance;
#X floatatom 170 180 7 0 0 0 - - -;
#X obj 34 159 list;
#X obj 34 192 print;
#X msg 263 63 0.2 0.4 0.5 0.6 0.7;
#X msg 75 63 0.1 0.3 0.5 0.6;
#X obj 71 241 list2lists;
#X connect 1 0 2 0;
#X connect 3 0 4 0;
#X connect 5 0 1 1;
#X connect 6 0 1 0;
