#N canvas 576 223 450 300 10;
#N canvas 482 136 494 344 META 0;
#X text 12 5 KEYWORDS control;
#X text 12 45 DESCRIPTION example libdir object class;
#X text 12 65 INLET_0 float rats;
#X text 12 25 LICENSE GPL v3;
#X text 12 85 AUTHOR Rafael Vega \, Daniel Gómez;
#X restore 370 250 pd META;
#X floatatom 170 180 7 0 0 0 - - -;
#X obj 170 132 dl_distance;
#X msg 263 63 0 2 2 2 2 2;
#X obj 32 142 edit_distance;
#X floatatom 29 186 10 0 0 0 - - -;
#X msg 74 62 1 2 3 4 5 6 7 8;
#X connect 2 0 1 0;
#X connect 3 0 2 1;
#X connect 3 0 4 1;
#X connect 4 0 5 0;
#X connect 6 0 2 0;
#X connect 6 0 4 0;
